<svg xmlns="http://www.w3.org/2000/svg" xmlns:xlink="http://www.w3.org/1999/xlink">
  <symbol id="header-icon1" viewBox="0 0 21 20">
    <path d="M10.5142 0.967773C5.01616 0.967773 0.51416 4.96877 0.51416 9.96777C0.51416 11.5398 0.956166 13.0678 1.79517 14.4048C2.24617 15.1238 2.28815 16.1468 1.60815 17.5298C1.29915 18.1578 1.72417 18.9018 2.42017 18.9678C3.77717 19.0968 4.92315 18.8688 6.48315 18.2178C7.72515 18.7018 9.13016 18.9678 10.5142 18.9678C16.0122 18.9678 20.5142 14.9658 20.5142 9.96777C20.5142 4.96877 16.0122 0.967773 10.5142 0.967773ZM10.5142 2.96777C14.9572 2.96777 18.5142 6.12977 18.5142 9.96777C18.5142 13.8058 14.9572 16.9678 10.5142 16.9678C9.23516 16.9678 8.00116 16.7138 6.88916 16.2178C6.63216 16.1028 6.33416 16.1048 6.07616 16.2178C5.15616 16.6208 4.63516 16.8408 3.95216 16.9368C4.33016 15.6318 4.05215 14.2498 3.48315 13.3428C2.84115 12.3198 2.51416 11.1578 2.51416 9.96777C2.51416 6.12977 6.07116 2.96777 10.5142 2.96777ZM6.51416 6.99878C5.96216 6.99878 5.51416 7.44678 5.51416 7.99878C5.51416 8.55078 5.96216 8.99878 6.51416 8.99878H14.5142C15.0662 8.99878 15.5142 8.55078 15.5142 7.99878C15.5142 7.44678 15.0662 6.99878 14.5142 6.99878H6.51416ZM6.51416 10.9988C5.96216 10.9988 5.51416 11.4468 5.51416 11.9988C5.51416 12.5508 5.96216 12.9988 6.51416 12.9988H11.5142C12.0662 12.9988 12.5142 12.5508 12.5142 11.9988C12.5142 11.4468 12.0662 10.9988 11.5142 10.9988H6.51416Z" fill="black"/>
  </symbol>

  <symbol id="header-icon2" viewBox="0 0 19 20">
    <path d="M9.49073 0.998779C8.93873 0.998779 8.49073 1.44648 8.49073 1.99878V12.5608L5.49073 9.59278L4.08472 10.9988L8.77174 15.7178C9.16274 16.1078 9.81872 16.1078 10.2097 15.7178L14.8967 10.9988L13.4907 9.59278L10.4907 12.5608V1.99878C10.4907 1.44648 10.0427 0.998679 9.49073 0.998779ZM1.49072 12.9988C0.938723 12.9988 0.490723 13.4468 0.490723 13.9988V15.9988C0.490723 18.2078 2.28172 19.9988 4.49073 19.9988H14.4907C16.6997 19.9988 18.4907 18.2078 18.4907 15.9988V13.9988C18.4907 13.4468 18.0427 12.9988 17.4907 12.9988C16.9387 12.9988 16.4907 13.4468 16.4907 13.9988V15.9988C16.4907 17.1038 15.5957 17.9988 14.4907 17.9988H4.49073C3.38573 17.9988 2.49072 17.1038 2.49072 15.9988V13.9988C2.49072 13.4468 2.04272 12.9988 1.49072 12.9988Z" fill="black"/>
  </symbol>

  <symbol id="word" viewBox="0 0 34 34">
    <path d="M29.9312 4.25H11.1518C10.4697 4.25 9.9165 4.80321 9.9165 5.48533V10.6271H31.1665V5.48533C31.1665 4.80321 30.6133 4.25 29.9312 4.25Z" fill="#2D92D4"/>
    <path d="M9.9165 23.4131V28.5145C9.9165 29.1966 10.4697 29.7498 11.1511 29.7498H29.9312C30.6133 29.7498 31.1665 29.1966 31.1665 28.5145V23.4131H9.9165Z" fill="#2150A9"/>
    <path d="M9.9165 10.627H31.1665V17.0034H9.9165V10.627Z" fill="#2D83D4"/>
    <path d="M9.9165 17.0034H31.1665V23.4138H9.9165V17.0034Z" fill="#2E70C9"/>
    <path d="M15.8095 24.0832H4.0242C3.36687 24.0832 2.8335 23.5498 2.8335 22.8925V11.1072C2.8335 10.4499 3.36687 9.9165 4.0242 9.9165H15.8095C16.4668 9.9165 17.0002 10.4499 17.0002 11.1072V22.8925C17.0002 23.5498 16.4668 24.0832 15.8095 24.0832Z" fill="#00488D"/>
    <path d="M13.0354 13.4585L11.9404 18.6038L10.727 13.4585H9.17785L7.92623 18.7632L6.79785 13.4585H5.41235L7.07269 20.5418H8.73869L9.95206 15.0955L11.1661 20.5418H12.7606L14.4209 13.4585H13.0354Z" fill="white"/>
  </symbol>

  <symbol id="exel" viewBox="0 0 34 34">
    <path d="M20.5415 4.25H11.1518C10.4697 4.25 9.9165 4.80321 9.9165 5.48533V10.6271H20.5415V4.25Z" fill="#169154"/>
    <path d="M9.9165 23.4131V28.5145C9.9165 29.1966 10.4697 29.7498 11.1511 29.7498H20.5415V23.4131H9.9165Z" fill="#18482A"/>
    <path d="M9.9165 10.627H20.5415V17.0034H9.9165V10.627Z" fill="#0C8045"/>
    <path d="M9.9165 17.0034H20.5415V23.4138H9.9165V17.0034Z" fill="#17472A"/>
    <path d="M29.9312 4.25H20.5415V10.6271H31.1665V5.48533C31.1665 4.80321 30.6133 4.25 29.9312 4.25Z" fill="#29C27F"/>
    <path d="M20.5415 23.4131V29.7498H29.9319C30.6133 29.7498 31.1665 29.1966 31.1665 28.5152V23.4138H20.5415V23.4131Z" fill="#27663F"/>
    <path d="M20.5415 10.627H31.1665V17.0034H20.5415V10.627Z" fill="#19AC65"/>
    <path d="M20.5415 17.0034H31.1665V23.4138H20.5415V17.0034Z" fill="#129652"/>
    <path d="M15.8095 24.0832H4.0242C3.36687 24.0832 2.8335 23.5498 2.8335 22.8925V11.1072C2.8335 10.4499 3.36687 9.9165 4.0242 9.9165H15.8095C16.4668 9.9165 17.0002 10.4499 17.0002 11.1072V22.8925C17.0002 23.5498 16.4668 24.0832 15.8095 24.0832Z" fill="#0C7238"/>
    <path d="M6.94709 13.4585H8.63717L10.0085 16.1176L11.4578 13.4585H13.0366L10.8613 17.0002L13.0862 20.5418H11.4209L9.92634 17.7581L8.43813 20.5418H6.74805L9.00975 16.9874L6.94709 13.4585Z" fill="white"/>
  </symbol>

  <symbol id="powerpoint" viewBox="0 0 34 34">
    <path d="M5.6665 17C5.6665 24.0415 11.375 29.75 18.4165 29.75C25.458 29.75 31.1665 24.0415 31.1665 17H18.4165H5.6665Z" fill="#DC4C2C"/>
    <path d="M18.4165 4.25V17H31.1665C31.1665 9.95846 25.458 4.25 18.4165 4.25Z" fill="#F7A278"/>
    <path d="M18.4165 4.25C11.375 4.25 5.6665 9.95846 5.6665 17H18.4165V4.25Z" fill="#C06346"/>
    <path d="M15.8095 24.0832H4.0242C3.36687 24.0832 2.8335 23.5498 2.8335 22.8925V11.1072C2.8335 10.4499 3.36687 9.9165 4.0242 9.9165H15.8095C16.4668 9.9165 17.0002 10.4499 17.0002 11.1072V22.8925C17.0002 23.5498 16.4668 24.0832 15.8095 24.0832Z" fill="#9B341F"/>
    <path d="M10.3935 13.4668H7.0835V20.5501H8.51716V18.0561H10.1293C11.4582 18.0561 12.5355 16.9787 12.5355 15.6499V15.6088C12.5355 14.4259 11.5765 13.4668 10.3935 13.4668ZM11.0289 15.8369C11.0289 16.4453 10.5352 16.939 9.92675 16.939H8.51716V14.5838H9.92675C10.5352 14.5838 11.0289 15.0775 11.0289 15.686V15.8369Z" fill="white"/>
  </symbol>

  <symbol id="onenote" viewBox="0 0 34 34">
    <path d="M11.0966 4.59082H29.9855C30.6331 4.59082 31.166 5.11982 31.166 5.76232V28.0227C31.166 28.6652 30.6331 29.1942 29.9855 29.1942H11.0966C10.4491 29.1942 9.91602 28.6652 9.91602 28.0227V28.0226V5.76232C9.91602 5.11982 10.4489 4.59082 11.0966 4.59082V4.59082Z" fill="#CA64EA"/>
    <path d="M31.166 5.7622C31.166 5.1197 30.6331 4.59082 29.9855 4.59082H29.9854H11.0966C10.4489 4.59082 9.91602 5.1197 9.91602 5.7622V28.0226C9.91602 28.6651 10.4489 29.1941 11.0966 29.1941H24.968L31.166 10.7417V5.7622Z" fill="#CA64EA"/>
    <path d="M31.1664 10.7417H24.9685V16.8925L28.0675 19.6999L31.1664 16.8925V10.7417Z" fill="#AE4BD5"/>
    <path d="M31.1664 16.8926H24.9685V23.0434L28.0675 26.0265L31.1664 23.0434V16.8926Z" fill="#9332BF"/>
    <path d="M24.9685 23.0435H31.1664V28.0228C31.1664 28.6653 30.6335 29.1943 29.986 29.1943H24.9685V23.0435Z" fill="#7719AA"/>
    <path d="M17.5897 8.98438H9.91602V25.6795H17.5897C18.2365 25.6777 18.7684 25.1499 18.7702 24.508V10.1559C18.7684 9.51402 18.2365 8.98616 17.5897 8.98438Z" fill="black" fill-opacity="0.094118"/>
    <path d="M16.7043 9.86279H9.91602V26.5579H16.7043C17.3511 26.5561 17.883 26.0283 17.8848 25.3864V11.0343C17.883 10.3924 17.3511 9.86458 16.7043 9.86279Z" fill="black" fill-opacity="0.2"/>
    <path d="M16.7043 9.86279H9.91602V24.8006H16.7043C17.3511 24.7988 17.883 24.2709 17.8848 23.6291V11.0343C17.883 10.3924 17.3511 9.86458 16.7043 9.86279Z" fill="black" fill-opacity="0.294118"/>
    <path d="M15.8189 9.86279H9.91602V24.8006H15.8189C16.4657 24.7988 16.9975 24.2709 16.9993 23.6291V11.0343C16.9975 10.3924 16.4657 9.86458 15.8189 9.86279Z" fill="black" fill-opacity="0.2"/>
    <path d="M4.01397 9.86279H15.8197C16.4671 9.86279 17.0002 10.3918 17.0002 11.0343V22.7504C17.0002 23.3929 16.4672 23.9219 15.8197 23.9219H4.01397C3.36655 23.9219 2.8335 23.3929 2.8335 22.7504V11.0343C2.8335 10.3918 3.36655 9.86279 4.01397 9.86279Z" fill="#7719AA"/>
    <path d="M6.37476 12.499H8.26021L11.4978 18.4141C11.6665 18.6692 11.793 18.8744 11.8773 19.0298H11.9014C11.8558 18.643 11.8378 18.2534 11.8471 17.8641V12.499H13.4556V21.2859H11.6906L8.31456 15.4609C8.18461 15.2687 8.06973 15.0667 7.97108 14.8571H7.94095C7.9801 15.2823 7.99607 15.7094 7.98924 16.1365V21.2859H6.37476V12.499Z" fill="white"/>
  </symbol>

  <symbol id="outlook" viewBox="0 0 34 34">
    <path d="M30.8885 16.8243L25.8154 13.8691V22.0816H31.1669V17.3088C31.1669 17.1098 31.0606 16.9249 30.8885 16.8243Z" fill="#1A237E"/>
    <path d="M24.0255 6.26167H30.4331V5.47683C30.4331 4.79896 29.8842 4.25 29.207 4.25H12.5137C11.8365 4.25 11.2869 4.79896 11.2869 5.47683V6.26167H17.6654H24.0255Z" fill="#0C4999"/>
    <path d="M24.0259 23.7448H29.2066C29.8838 23.7448 30.4335 23.1958 30.4335 22.5179V17.6821H24.0259V23.7448Z" fill="#0F73D9"/>
    <path d="M11.2886 17.6831V22.5189C11.2886 23.1961 11.8375 23.7457 12.5154 23.7457H17.6671V17.6838H11.2886V17.6831Z" fill="#0F439D"/>
    <path d="M24.0259 6.26172H30.4335V11.9475H24.0259V6.26172Z" fill="#2ECDFD"/>
    <path d="M11.2886 6.26172H17.6671V11.9475H11.2886V6.26172Z" fill="#1C5FB0"/>
    <path d="M17.6663 17.6831H24.0264V23.745H17.6663V17.6831Z" fill="#1467C7"/>
    <path d="M17.6663 6.26172H24.0264V11.9475H17.6663V6.26172Z" fill="#1690D5"/>
    <path d="M24.0259 11.9473H30.4335V17.6819H24.0259V11.9473Z" fill="#1BB4FF"/>
    <path d="M11.2886 11.9473H17.6671V17.6819H11.2886V11.9473Z" fill="#074DAF"/>
    <path d="M17.6663 11.9473H24.0264V17.6819H17.6663V11.9473Z" fill="#2076D4"/>
    <path d="M10.9371 29.7498C11.265 29.7498 29.97 29.7498 29.97 29.7498C30.6309 29.7498 31.1664 29.2143 31.1664 28.5534V17.3101C31.1664 17.3101 31.1451 17.7761 29.9261 18.4554C29.0052 18.9683 10.4434 29.4424 10.4434 29.4424C10.4434 29.4424 10.6091 29.7498 10.9371 29.7498Z" fill="#2ED0FF"/>
    <path d="M29.9475 29.7479C29.8334 29.7479 11.1129 29.7501 11.1129 29.7501C10.452 29.7501 9.9165 29.2146 9.9165 28.5537V17.7559L30.7153 29.4873C30.5418 29.6261 30.3215 29.7479 29.9475 29.7479Z" fill="#139FE2"/>
    <path d="M15.8095 24.0832H4.0242C3.36687 24.0832 2.8335 23.5498 2.8335 22.8925V11.1072C2.8335 10.4499 3.36687 9.9165 4.0242 9.9165H15.8095C16.4668 9.9165 17.0002 10.4499 17.0002 11.1072V22.8925C17.0002 23.5498 16.4668 24.0832 15.8095 24.0832Z" fill="#00488D"/>
    <path d="M9.8562 13.27C7.63841 13.27 6.30249 14.9644 6.30249 17.0546C6.30249 19.1449 7.63345 20.8386 9.8562 20.8386C12.0797 20.8386 13.4099 19.1442 13.4099 17.0546C13.4099 14.9644 12.074 13.27 9.8562 13.27ZM9.8562 19.5614C8.5982 19.5614 7.84595 18.4394 7.84595 17.0546C7.84595 15.6699 8.60174 14.5479 9.8562 14.5479C11.1107 14.5479 11.8672 15.6706 11.8672 17.0546C11.8672 18.4387 11.1135 19.5614 9.8562 19.5614Z" fill="white"/>
  </symbol>

  <symbol id="info1" viewBox="0 0 14 16">
    <path d="M9.78125 9.5C8.875 9.5 8.46875 10 7 10C5.5 10 5.09375 9.5 4.1875 9.5C1.875 9.5 0 11.4062 0 13.7188V14.5C0 15.3438 0.65625 16 1.5 16H12.5C13.3125 16 14 15.3438 14 14.5V13.7188C14 11.4062 12.0938 9.5 9.78125 9.5ZM12.5 14.5H1.5V13.7188C1.5 12.2188 2.6875 11 4.1875 11C4.65625 11 5.375 11.5 7 11.5C8.59375 11.5 9.3125 11 9.78125 11C11.2812 11 12.5 12.2188 12.5 13.7188V14.5ZM7 9C9.46875 9 11.5 7 11.5 4.5C11.5 2.03125 9.46875 0 7 0C4.5 0 2.5 2.03125 2.5 4.5C2.5 7 4.5 9 7 9ZM7 1.5C8.625 1.5 10 2.875 10 4.5C10 6.15625 8.625 7.5 7 7.5C5.34375 7.5 4 6.15625 4 4.5C4 2.875 5.34375 1.5 7 1.5Z" fill="#5E36FE"/>
  </symbol>

  <symbol id="info2" viewBox="0 0 20 12">
    <path d="M15 3H13V7H15V3ZM11 3H9V7H11V3ZM7 3H5V7H7V3ZM19.75 3H20V1C20 0.46875 19.5312 0 19 0H1C0.4375 0 0 0.46875 0 1V3H0.25C0.65625 3 1 3.34375 1 3.75C1 4.1875 0.65625 4.5 0.25 4.5H0V12H20V4.5H19.75C19.3125 4.5 19 4.1875 19 3.75C19 3.34375 19.3125 3 19.75 3ZM18.5 10.5H16.5C16.5 10.25 16.25 10 16 10C15.7188 10 15.5 10.25 15.5 10.5H12.5C12.5 10.25 12.25 10 12 10C11.7188 10 11.5 10.25 11.5 10.5H8.5C8.5 10.25 8.25 10 8 10C7.71875 10 7.5 10.25 7.5 10.5H4.5C4.5 10.25 4.25 10 4 10C3.71875 10 3.5 10.25 3.5 10.5H1.5V9H18.5V10.5ZM18.5 1.90625C17.875 2.3125 17.5 3 17.5 3.75C17.5 4.53125 17.875 5.21875 18.5 5.625V8H1.5V5.625C2.09375 5.21875 2.5 4.53125 2.5 3.75C2.5 3 2.09375 2.3125 1.5 1.90625V1.5H18.5V1.90625Z" fill="#5E36FE"/>
  </symbol>

  <symbol id="info3" viewBox="0 0 16 16">
    <path d="M7 10.5V6.03125C7 5.46875 6.53125 5.03125 6 5.03125H4.5C3.375 5.03125 2.5 5.9375 2.5 7.03125V9.5C2.5 10.625 3.375 11.5 4.5 11.5H6C6.53125 11.5 7 11.0625 7 10.5ZM5.5 10H4.5C4.21875 10 4 9.78125 4 9.5V7.03125C4 6.75 4.21875 6.53125 4.5 6.53125H5.5V10ZM8 0C3.53125 0 0.125 3.71875 0 8V8.5C0 8.78125 0.21875 9 0.5 9H1C1.25 9 1.5 8.78125 1.5 8.5V8C1.5 4.4375 4.40625 1.5 8 1.5C11.5625 1.5 14.5 4.4375 14.5 8H14.4688C14.4688 8.09375 14.5 13.1875 14.5 13.1875C14.5 13.9375 13.9062 14.5 13.1562 14.5H10C10 13.6875 9.3125 13 8.5 13H7.5C6.65625 13 6 13.6875 6 14.5C6 15.3438 6.65625 16 7.5 16H13.1562C14.7188 16 16 14.75 16 13.1875V8C15.8438 3.71875 12.4375 0 8 0ZM11.5 11.5C12.5938 11.5 13.5 10.625 13.5 9.5V7.03125C13.5 5.9375 12.5938 5.03125 11.5 5.03125H10C9.4375 5.03125 9 5.46875 9 6.03125V10.5C9 11.0625 9.4375 11.5 10 11.5H11.5ZM10.5 6.53125H11.5C11.75 6.53125 12 6.75 12 7.03125V9.5C12 9.78125 11.75 10 11.5 10H10.5V6.53125Z" fill="#5E36FE"/>
  </symbol>

  <symbol id="discount" viewbox="0 0 48 48">
    <path d="M32.7188 16.3125L31.6875 15.2812C31.4062 15 30.9375 15 30.6562 15.2812L15.1875 30.75C14.9062 31.0312 14.9062 31.5 15.1875 31.7812L16.2188 32.8125C16.5 33.0938 16.9688 33.0938 17.25 32.8125L32.7188 17.3438C33 17.0625 33 16.5938 32.7188 16.3125ZM22.5 18C22.5 15.5625 20.4375 13.5 18 13.5C15.4688 13.5 13.5 15.5625 13.5 18C13.5 20.5312 15.4688 22.5 18 22.5C20.4375 22.5 22.5 20.5312 22.5 18ZM16.5 18C16.5 17.25 17.1562 16.5 18 16.5C18.75 16.5 19.5 17.25 19.5 18C19.5 18.8438 18.75 19.5 18 19.5C17.1562 19.5 16.5 18.8438 16.5 18ZM30 25.5C27.4688 25.5 25.5 27.5625 25.5 30C25.5 32.5312 27.4688 34.5 30 34.5C32.4375 34.5 34.5 32.5312 34.5 30C34.5 27.5625 32.4375 25.5 30 25.5ZM30 31.5C29.1562 31.5 28.5 30.8438 28.5 30C28.5 29.25 29.1562 28.5 30 28.5C30.75 28.5 31.5 29.25 31.5 30C31.5 30.8438 30.75 31.5 30 31.5ZM48 24C48 20.7188 46.125 17.625 43.3125 16.0312C44.1562 12.8438 43.3125 9.46875 40.9688 7.03125C38.5312 4.6875 35.1562 3.84375 31.9688 4.6875C30.375 1.875 27.2812 0 24 0C20.625 0 17.5312 1.875 15.9375 4.6875C12.75 3.84375 9.375 4.6875 7.03125 7.03125C4.59375 9.46875 3.75 12.8438 4.59375 16.0312C1.78125 17.625 0 20.7188 0 24C0 27.375 1.78125 30.4688 4.59375 32.0625C3.75 35.25 4.59375 38.625 7.03125 40.9688C9.46875 43.5 12.9375 44.25 15.9375 43.4062C17.5312 46.2188 20.625 48 24 48C27.2812 48 30.375 46.2188 31.9688 43.4062C35.0625 44.25 38.4375 43.5 40.9688 40.9688C43.3125 38.625 44.1562 35.25 43.3125 32.0625C46.125 30.4688 48 27.375 48 24ZM39.375 30.4688C39.9375 31.5938 42.1875 35.5312 38.8125 38.9062C36.0938 41.625 33.375 40.875 30.375 39.4688C29.9062 40.5938 28.7812 45 24 45C19.0312 45 17.9062 40.4062 17.5312 39.4688C14.5312 40.875 11.8125 41.625 9.09375 38.9062C5.625 35.4375 8.0625 31.3125 8.53125 30.4688C7.40625 30 3 28.7812 3 24C3 19.125 7.59375 18 8.53125 17.625C7.96875 16.5 5.71875 12.5625 9.09375 9.1875C12.5625 5.71875 16.6875 8.15625 17.5312 8.625C18 7.40625 19.2188 3 24 3C28.875 3 30 7.6875 30.375 8.625C31.5 8.0625 35.4375 5.8125 38.8125 9.1875C42.2812 12.6562 39.8438 16.7812 39.375 17.625C40.5938 18.0938 45 19.2188 45 24C45 28.9688 40.3125 30.0938 39.375 30.4688Z" fill="#5E36FE"></path>
  </symbol>

  <symbol id="range" viewbox="0 0 54 48">
    <path d="M51.6562 6H12.0938L11.25 1.875C11.0625 0.84375 10.125 0 9.09375 0H1.125C0.46875 0 0 0.5625 0 1.125V1.875C0 2.53125 0.46875 3 1.125 3H8.4375L15 37.9688C14.0625 39.0938 13.5 40.5 13.5 42C13.5 45.375 16.125 48 19.5 48C22.7812 48 25.5 45.375 25.5 42C25.5 41.1562 25.125 39.8438 24.6562 39H38.25C37.7812 39.8438 37.5 41.1562 37.5 42C37.5 45.375 40.125 48 43.5 48C46.7812 48 49.5 45.375 49.5 42C49.5 40.4062 48.75 38.8125 47.625 37.7812C47.4375 36.75 46.5 36 45.4688 36H17.7188L16.5938 30H47.625C48.75 30 49.5938 29.3438 49.875 28.2188L53.9062 8.71875C54.1875 7.3125 53.1562 6 51.6562 6ZM22.5 42C22.5 43.6875 21.0938 45 19.5 45C17.8125 45 16.5 43.6875 16.5 42C16.5 40.4062 17.8125 39 19.5 39C21.0938 39 22.5 40.4062 22.5 42ZM43.5 45C41.8125 45 40.5 43.6875 40.5 42C40.5 40.4062 41.8125 39 43.5 39C45.0938 39 46.5 40.4062 46.5 42C46.5 43.6875 45.0938 45 43.5 45ZM47.0625 27H16.0312L12.6562 9H50.8125L47.0625 27ZM37.0312 19.9688C37.7812 19.2188 37.2188 18 36.2812 18H33V13.125C33 12.5625 32.4375 12 31.875 12H31.125C30.4688 12 30 12.5625 30 13.125V18H26.625C25.6875 18 25.125 19.2188 25.875 19.9688L30.6562 24.75C31.125 25.2188 31.7812 25.2188 32.25 24.75L37.0312 19.9688Z" fill="#5E36FE"></path>
  </symbol>

  <symbol id="warranty" viewbox="0 0 52 49">
    <path d="M48.5 16.125L34.8125 14.1562L28.625 1.6875C27.5938 -0.46875 24.4062 -0.5625 23.2812 1.6875L17.1875 14.1562L3.40625 16.125C0.96875 16.5 0.03125 19.5 1.8125 21.2812L11.6562 30.9375L9.3125 44.5312C8.9375 46.9688 11.5625 48.8438 13.7188 47.7188L26 41.25L38.1875 47.7188C40.3438 48.8438 42.9688 46.9688 42.5938 44.5312L40.25 30.9375L50.0938 21.2812C51.875 19.5 50.9375 16.5 48.5 16.125ZM36.9688 29.8125L39.5938 45L26 37.875L12.3125 45L14.9375 29.8125L3.875 19.125L19.1562 16.875L26 3L32.75 16.875L48.0312 19.125L36.9688 29.8125Z" fill="#5E36FE"></path>
  </symbol>

  <symbol id="about" viewBox="0 0 24 19">
    <path d="M23.3242 6.47266L20.125 0.847656C19.9141 0.496094 19.5625 0.25 19.1406 0.25H5.32422C4.9375 0.25 4.55078 0.496094 4.33984 0.847656L1.14062 6.47266C0.71875 7.21094 1.24609 8.125 2.125 8.125H3.25V17.0195C3.25 17.7227 3.74219 18.25 4.375 18.25H13.375C13.9727 18.25 14.5 17.7227 14.5 17.0195V8.125H19.5625V17.6875C19.5625 18.0039 19.8086 18.25 20.125 18.25H20.6875C20.9688 18.25 21.25 18.0039 21.25 17.6875V8.125H22.375C23.2188 8.125 23.7461 7.21094 23.3242 6.47266ZM12.8125 16.5625H4.9375V13.2227H12.8125V16.5625ZM12.8125 11.5352H4.9375V8.125H12.8125V11.5352ZM3.07422 6.4375L5.64062 1.9375H18.8242L21.3906 6.4375H3.07422Z" fill="#303030"/>
  </symbol>

  <symbol id="download" viewBox="0 0 18 14">
    <path d="M16.3125 2.75H9.5625L7.62891 0.851562C7.45312 0.675781 7.10156 0.5 6.82031 0.5H1.6875C0.738281 0.5 0 1.27344 0 2.1875V12.3125C0 13.2617 0.738281 14 1.6875 14H16.3125C17.2266 14 18 13.2617 18 12.3125V4.4375C18 3.52344 17.2266 2.75 16.3125 2.75ZM16.3125 12.3125H1.6875V2.1875H6.60938L8.15625 3.73438V7.25H6.43359C6.1875 7.25 6.01172 7.46094 6.01172 7.67188C6.01172 7.77734 6.04688 7.91797 6.11719 7.98828L8.68359 10.5195C8.75391 10.5898 8.89453 10.625 9 10.625C9.07031 10.625 9.21094 10.5898 9.31641 10.5195L11.8477 7.98828C11.918 7.91797 11.9531 7.77734 11.9531 7.67188C11.9531 7.46094 11.7773 7.28516 11.5312 7.25H9.84375V4.4375H16.3125V12.3125Z" fill="#303030"/>
  </symbol>

  <symbol id="rss" viewBox="1 4 20 20">
    <circle cx="6.18" cy="17.82" r="2.18"/><path d="M4 4.44v2.83c7.03 0 12.73 5.7 12.73 12.73h2.83c0-8.59-6.97-15.56-15.56-15.56zm0 5.66v2.83c3.9 0 7.07 3.17 7.07 7.07h2.83c0-5.47-4.43-9.9-9.9-9.9z"/>
  </symbol>

  <symbol id="discounts" viewBox="0 0 18 19">
    <path d="M11.9883 6.64844L11.6016 6.26172C11.3906 6.05078 11.0039 6.05078 10.793 6.26172L5.97656 11.0781C5.76562 11.2891 5.76562 11.6758 5.97656 11.8867L6.36328 12.2734C6.57422 12.4844 6.96094 12.4844 7.17188 12.2734L11.9883 7.45703C12.1992 7.24609 12.1992 6.85938 11.9883 6.64844ZM6.75 8.125C7.34766 8.125 7.875 7.63281 7.875 7C7.875 6.40234 7.34766 5.875 6.75 5.875C6.11719 5.875 5.625 6.40234 5.625 7C5.625 7.63281 6.11719 8.125 6.75 8.125ZM11.25 10.375C10.6172 10.375 10.125 10.9023 10.125 11.5C10.125 12.1328 10.6172 12.625 11.25 12.625C11.8477 12.625 12.375 12.1328 12.375 11.5C12.375 10.9023 11.8477 10.375 11.25 10.375ZM18 9.25C18 7.98438 17.332 6.85938 16.3477 6.22656C16.5938 5.06641 16.2422 3.80078 15.3633 2.88672C14.4492 2.00781 13.1836 1.65625 12.0234 1.90234C11.3906 0.917969 10.2656 0.25 9 0.25C7.69922 0.25 6.57422 0.917969 5.94141 1.90234C4.78125 1.65625 3.51562 2.00781 2.63672 2.88672C1.72266 3.80078 1.37109 5.06641 1.61719 6.22656C0.632812 6.85938 0 7.98438 0 9.25C0 10.5508 0.632812 11.6758 1.61719 12.3086C1.37109 13.4688 1.72266 14.7344 2.63672 15.6133C3.51562 16.5273 4.78125 16.8789 5.94141 16.6328C6.57422 17.6172 7.69922 18.25 9 18.25C10.2656 18.25 11.3906 17.6172 12.0234 16.6328C13.1836 16.8789 14.4492 16.5273 15.3633 15.6133C16.2422 14.7344 16.5938 13.4688 16.3477 12.3086C17.332 11.6758 18 10.5508 18 9.25ZM14.168 11.4297C14.4844 12.1328 15.2578 13.3633 14.168 14.4531C13.1836 15.4375 12.1992 14.9453 11.1445 14.4531C10.8633 15.1914 10.5117 16.5625 9 16.5625C7.38281 16.5625 7.06641 15.0859 6.82031 14.4531C6.08203 14.8047 4.88672 15.5078 3.79688 14.418C2.67188 13.293 3.51562 12.0273 3.79688 11.4297C3.05859 11.1484 1.6875 10.7969 1.6875 9.25C1.6875 7.66797 3.16406 7.35156 3.79688 7.10547C3.48047 6.40234 2.74219 5.17188 3.83203 4.08203C4.95703 2.95703 6.22266 3.80078 6.82031 4.08203C7.10156 3.34375 7.45312 1.9375 9 1.9375C10.582 1.9375 10.8984 3.44922 11.1445 4.08203C11.8477 3.76562 13.0781 3.02734 14.168 4.11719C15.293 5.24219 14.4492 6.50781 14.168 7.10547C14.9062 7.38672 16.2773 7.73828 16.2773 9.28516C16.2773 10.8672 14.8008 11.1836 14.168 11.4297Z" fill="#303030"/>
  </symbol>

  <symbol id="faq" viewBox="0 0 18 18">
    <path d="M9 0.53125C4.18359 0.53125 0.28125 4.46875 0.28125 9.25C0.28125 14.0664 4.18359 17.9688 9 17.9688C13.7812 17.9688 17.7188 14.0664 17.7188 9.25C17.7188 4.46875 13.7812 0.53125 9 0.53125ZM9 16.2812C5.09766 16.2812 1.96875 13.1523 1.96875 9.25C1.96875 5.38281 5.09766 2.21875 9 2.21875C12.8672 2.21875 16.0312 5.38281 16.0312 9.25C16.0312 13.1523 12.8672 16.2812 9 16.2812ZM12.7617 7.31641C12.7617 5.55859 10.8984 4.1875 9.17578 4.1875C7.52344 4.1875 6.46875 4.89062 5.66016 6.12109C5.51953 6.29688 5.55469 6.54297 5.73047 6.68359L6.71484 7.42188C6.89062 7.5625 7.17188 7.52734 7.3125 7.35156C7.83984 6.68359 8.22656 6.29688 9.03516 6.29688C9.66797 6.29688 10.4414 6.68359 10.4414 7.31641C10.4414 7.77344 10.0547 7.98438 9.42188 8.33594C8.71875 8.75781 7.76953 9.25 7.76953 10.5156V10.7969C7.76953 11.043 7.94531 11.2188 8.19141 11.2188H9.77344C10.0195 11.2188 10.1953 11.043 10.1953 10.7969V10.5859C10.1953 9.70703 12.7617 9.67188 12.7617 7.31641ZM10.4766 13.1875C10.4766 12.3789 9.80859 11.7109 9 11.7109C8.15625 11.7109 7.52344 12.3789 7.52344 13.1875C7.52344 14.0312 8.15625 14.6641 9 14.6641C9.80859 14.6641 10.4766 14.0312 10.4766 13.1875Z" fill="#303030"/>
  </symbol>
</svg>